<?xml version="1.0" encoding="UTF-8"?>
<svg width="63px" height="63px" viewBox="0 0 63 63" version="1.1" xmlns="http://www.w3.org/2000/svg" xmlns:xlink="http://www.w3.org/1999/xlink">
    <title>journy-white</title>
    <g id="journy-white" stroke="none" stroke-width="1" fill="none" fill-rule="evenodd">
        <g id="Group">
            <path d="M31.1298,13.4948 C40.9318,13.4948 48.8778,21.4408 48.8778,31.2428 C48.8778,41.0448 40.9318,48.9908 31.1298,48.9908 C21.3278,48.9908 13.3818,41.0448 13.3818,31.2428 C13.3818,21.4408 21.3278,13.4948 31.1298,13.4948" id="Fill-39" fill="#F2994A"></path>
            <path d="M31.243,5.216 C16.869,5.216 5.217,16.869 5.217,31.243 C5.217,45.617 16.869,57.269 31.243,57.269 C45.617,57.269 57.269,45.617 57.269,31.243 C57.269,16.869 45.617,5.216 31.243,5.216 M31.186,3.55271368e-15 C48.41,3.55271368e-15 62.373,13.962 62.373,31.186 C62.373,48.41 48.41,62.372 31.186,62.372 C13.963,62.372 -1.98951966e-13,48.41 -1.98951966e-13,31.186 C-1.98951966e-13,13.962 13.963,3.55271368e-15 31.186,3.55271368e-15" id="Fill-41" fill="#FFFFFF"></path>
        </g>
    </g>
</svg>