<?xml version="1.0" encoding="UTF-8"?>
<svg width="1220px" height="350px" viewBox="0 0 1220 350" version="1.1" xmlns="http://www.w3.org/2000/svg" xmlns:xlink="http://www.w3.org/1999/xlink">
    <title>journyio_logo_white_space</title>
    <g id="journyio_logo_white_space" stroke="none" stroke-width="1" fill="none" fill-rule="evenodd">
        <g id="Group-19" transform="translate(36.000000, 36.000000)">
            <path d="M27.6582,37.2322 C23.4132,33.0832 21.2952,27.9162 21.2952,21.7302 C21.2952,15.5472 23.4132,10.3802 27.6582,6.2272 C31.8982,2.0782 37.3072,0.0002 43.8892,0.0002 C50.2922,0.0002 55.5752,2.0782 59.7312,6.2272 C63.8862,10.3802 65.9642,15.5472 65.9642,21.7302 C65.9642,27.9162 63.8862,33.0832 59.7312,37.2322 C55.5752,41.3852 50.2922,43.4602 43.8892,43.4602 C37.3072,43.4602 31.8982,41.3852 27.6582,37.2322 L27.6582,37.2322 Z M61.8082,231.8752 C61.8082,248.1272 57.8682,259.8322 49.9922,266.9872 C42.1122,274.1432 30.8152,277.7202 16.1012,277.7202 L0.0002,277.7202 L0.0002,246.1852 L10.3882,246.1852 C15.9272,246.1852 19.8222,245.0792 22.0742,242.8722 C24.3222,240.6612 25.4502,237.0842 25.4502,232.1402 L25.4502,60.9492 L61.8082,60.9492 L61.8082,231.8752 Z" id="Fill-1" fill="#FFFFFF"></path>
            <path d="M180.1021,172.9124 C185.9011,169.6454 190.5311,164.7424 193.9961,158.2044 C197.4571,151.6714 199.1901,143.7214 199.1901,134.3544 C199.1901,120.4004 195.5951,109.6684 188.4131,102.1574 C181.2261,94.6504 172.4411,90.8944 162.0531,90.8944 C151.6651,90.8944 142.9651,94.6504 135.9531,102.1574 C128.9411,109.6684 125.4351,120.4004 125.4351,134.3544 C125.4351,148.3124 128.8521,159.0454 135.6931,166.5524 C142.5311,174.0634 151.1451,177.8144 161.5341,177.8144 C168.1111,177.8144 174.2991,176.1834 180.1021,172.9124 M124.1371,200.7374 C113.0551,194.4684 104.3551,185.5914 98.0371,174.1044 C91.7151,162.6234 88.5581,149.3734 88.5581,134.3544 C88.5581,119.3404 91.8041,106.0904 98.2961,94.6044 C104.7891,83.1224 113.6601,74.2454 124.9161,67.9724 C136.1681,61.7034 148.7191,58.5644 162.5721,58.5644 C176.4221,58.5644 188.9731,61.7034 200.2291,67.9724 C211.4811,74.2454 220.3551,83.1224 226.8481,94.6044 C233.3401,106.0904 236.5871,119.3404 236.5871,134.3544 C236.5871,149.3734 233.2511,162.6234 226.5881,174.1044 C219.9211,185.5914 210.9171,194.4684 199.5801,200.7374 C188.2381,207.0104 175.5571,210.1444 161.5341,210.1444 C147.6801,210.1444 135.2141,207.0104 124.1371,200.7374" id="Fill-4" fill="#FFFFFF"></path>
            <path d="M400.1548,60.9495 L400.1548,207.7605 L363.5368,207.7605 L363.5368,189.2105 C358.8628,195.5695 352.7598,200.5635 345.2288,204.1815 C337.6968,207.8015 329.5168,209.6145 320.6868,209.6145 C309.4308,209.6145 299.4768,207.1885 290.8218,202.3275 C282.1618,197.4705 275.3688,190.3155 270.4348,180.8625 C265.5008,171.4135 263.0328,160.1505 263.0328,147.0745 L263.0328,60.9495 L299.3918,60.9495 L299.3918,141.7745 C299.3918,153.4345 302.2478,162.4035 307.9618,168.6725 C313.6748,174.9455 321.4658,178.0795 331.3348,178.0795 C341.3738,178.0795 349.2538,174.9455 354.9668,168.6725 C360.6808,162.4035 363.5368,153.4345 363.5368,141.7745 L363.5368,60.9495 L400.1548,60.9495 Z" id="Fill-6" fill="#FFFFFF"></path>
            <path d="M494.6597,65.4544 C502.1917,61.0404 510.8017,58.8294 520.4997,58.8294 L520.4997,97.7844 L510.8907,97.7844 C499.4647,97.7844 490.8497,100.5254 485.0507,105.9994 C479.2487,111.4774 476.3507,121.0174 476.3507,134.6194 L476.3507,207.7604 L439.9927,207.7604 L439.9927,60.9494 L476.3507,60.9494 L476.3507,83.7394 C481.0257,75.9674 487.1287,69.8724 494.6597,65.4544" id="Fill-8" fill="#FFFFFF"></path>
            <path d="M666.1895,75.3919 C676.7485,86.4349 682.0315,101.8509 682.0315,121.6349 L682.0315,207.7599 L645.6715,207.7599 L645.6715,126.6699 C645.6715,115.0099 642.8165,106.0449 637.1025,99.7719 C631.3895,93.5029 623.5985,90.3649 613.7295,90.3649 C603.6865,90.3649 595.7655,93.5029 589.9665,99.7719 C584.1655,106.0449 581.2675,115.0099 581.2675,126.6699 L581.2675,207.7599 L544.9095,207.7599 L544.9095,60.9499 L581.2675,60.9499 L581.2675,79.2349 C586.1125,72.8749 592.3045,67.8849 599.8355,64.2619 C607.3675,60.6429 615.6325,58.8299 624.6365,58.8299 C641.7775,58.8299 655.6265,64.3529 666.1895,75.3919" id="Fill-10" fill="#FFFFFF"></path>
            <polygon id="Fill-12" fill="#FFFFFF" points="858.2119 60.9495 769.1349 277.1895 730.4399 277.1895 761.6039 204.0505 703.9499 60.9495 744.7229 60.9495 781.8599 163.5055 819.5169 60.9495"></polygon>
            <path d="M861.5566,203.387 C857.3126,199.239 855.1946,194.071 855.1946,187.885 C855.1946,181.702 857.3126,176.535 861.5566,172.382 C865.7976,168.234 871.2056,166.155 877.7876,166.155 C884.1916,166.155 889.4746,168.234 893.6296,172.382 C897.7856,176.535 899.8626,181.702 899.8626,187.885 C899.8626,194.071 897.7856,199.239 893.6296,203.387 C889.4746,207.54 884.1916,209.615 877.7876,209.615 C871.2056,209.615 865.7976,207.54 861.5566,203.387" id="Fill-14" fill="#F2994A"></path>
            <path d="M936.207,207.76 L972.565,207.76 L972.565,60.949 L936.207,60.949 L936.207,207.76 Z M938.675,37.232 C934.43,33.083 932.312,27.916 932.312,21.73 C932.312,15.548 934.43,10.38 938.675,6.227 C942.915,2.078 948.239,0 954.646,0 C961.049,0 966.373,2.078 970.617,6.227 C974.858,10.38 976.98,15.548 976.98,21.73 C976.98,27.916 974.858,33.083 970.617,37.232 C966.373,41.385 961.049,43.46 954.646,43.46 C948.239,43.46 942.915,41.385 938.675,37.232 L938.675,37.232 Z" id="Fill-16" fill="#FFFFFF"></path>
            <path d="M1090.8584,172.9124 C1096.6574,169.6454 1101.2874,164.7424 1104.7524,158.2044 C1108.2134,151.6714 1109.9464,143.7214 1109.9464,134.3544 C1109.9464,120.4004 1106.3514,109.6684 1099.1694,102.1574 C1091.9824,94.6504 1083.1974,90.8944 1072.8094,90.8944 C1062.4214,90.8944 1053.7214,94.6504 1046.7094,102.1574 C1039.6974,109.6684 1036.1914,120.4004 1036.1914,134.3544 C1036.1914,148.3124 1039.6084,159.0454 1046.4504,166.5524 C1053.2874,174.0634 1061.9024,177.8144 1072.2904,177.8144 C1078.8674,177.8144 1085.0554,176.1834 1090.8584,172.9124 M1034.8934,200.7374 C1023.8114,194.4684 1015.1114,185.5914 1008.7934,174.1044 C1002.4704,162.6234 999.3144,149.3734 999.3144,134.3544 C999.3144,119.3404 1002.5604,106.0904 1009.0524,94.6044 C1015.5454,83.1224 1024.4164,74.2454 1035.6714,67.9724 C1046.9244,61.7034 1059.4754,58.5644 1073.3294,58.5644 C1087.1774,58.5644 1099.7284,61.7034 1110.9854,67.9724 C1122.2374,74.2454 1131.1124,83.1224 1137.6044,94.6044 C1144.0964,106.0904 1147.3424,119.3404 1147.3424,134.3544 C1147.3424,149.3734 1144.0074,162.6234 1137.3444,174.1044 C1130.6774,185.5914 1121.6734,194.4684 1110.3364,200.7374 C1098.9944,207.0104 1086.3134,210.1444 1072.2904,210.1444 C1058.4364,210.1444 1045.9704,207.0104 1034.8934,200.7374" id="Fill-18" fill="#FFFFFF"></path>
        </g>
    </g>
</svg>