<?xml version="1.0" encoding="UTF-8"?>
<svg width="1148px" height="279px" viewBox="0 0 1148 279" version="1.1" xmlns="http://www.w3.org/2000/svg" xmlns:xlink="http://www.w3.org/1999/xlink">
    <title>journyio_logo_blue</title>
    <defs>
        <polygon id="path-1" points="0.0002 0.2802 65.9642 0.2802 65.9642 278 0.0002 278"></polygon>
        <polygon id="path-3" points="0 278.72 1147.343 278.72 1147.343 1 0 1"></polygon>
    </defs>
    <g id="journyio_logo_blue" stroke="none" stroke-width="1" fill="none" fill-rule="evenodd">
        <g id="Group-19">
            <g id="Group-3" transform="translate(0.000000, 0.720000)">
                <mask id="mask-2" fill="white">
                    <use xlink:href="#path-1"></use>
                </mask>
                <g id="Clip-2"></g>
                <path d="M27.6582,37.5122 C23.4132,33.3632 21.2952,28.1962 21.2952,22.0102 C21.2952,15.8272 23.4132,10.6602 27.6582,6.5072 C31.8982,2.3582 37.3072,0.2802 43.8892,0.2802 C50.2922,0.2802 55.5752,2.3582 59.7312,6.5072 C63.8862,10.6602 65.9642,15.8272 65.9642,22.0102 C65.9642,28.1962 63.8862,33.3632 59.7312,37.5122 C55.5752,41.6652 50.2922,43.7402 43.8892,43.7402 C37.3072,43.7402 31.8982,41.6652 27.6582,37.5122 L27.6582,37.5122 Z M61.8082,232.1552 C61.8082,248.4072 57.8682,260.1122 49.9922,267.2672 C42.1122,274.4232 30.8152,278.0002 16.1012,278.0002 L0.0002,278.0002 L0.0002,246.4652 L10.3882,246.4652 C15.9272,246.4652 19.8222,245.3592 22.0742,243.1522 C24.3222,240.9412 25.4502,237.3642 25.4502,232.4202 L25.4502,61.2292 L61.8082,61.2292 L61.8082,232.1552 Z" id="Fill-1" fill="#102A43" mask="url(#mask-2)"></path>
            </g>
            <path d="M180.1021,173.9124 C185.9011,170.6454 190.5311,165.7424 193.9961,159.2044 C197.4571,152.6714 199.1901,144.7214 199.1901,135.3544 C199.1901,121.4004 195.5951,110.6684 188.4131,103.1574 C181.2261,95.6504 172.4411,91.8944 162.0531,91.8944 C151.6651,91.8944 142.9651,95.6504 135.9531,103.1574 C128.9411,110.6684 125.4351,121.4004 125.4351,135.3544 C125.4351,149.3124 128.8521,160.0454 135.6931,167.5524 C142.5311,175.0634 151.1451,178.8144 161.5341,178.8144 C168.1111,178.8144 174.2991,177.1834 180.1021,173.9124 M124.1371,201.7374 C113.0551,195.4684 104.3551,186.5914 98.0371,175.1044 C91.7151,163.6234 88.5581,150.3734 88.5581,135.3544 C88.5581,120.3404 91.8041,107.0904 98.2961,95.6044 C104.7891,84.1224 113.6601,75.2454 124.9161,68.9724 C136.1681,62.7034 148.7191,59.5644 162.5721,59.5644 C176.4221,59.5644 188.9731,62.7034 200.2291,68.9724 C211.4811,75.2454 220.3551,84.1224 226.8481,95.6044 C233.3401,107.0904 236.5871,120.3404 236.5871,135.3544 C236.5871,150.3734 233.2511,163.6234 226.5881,175.1044 C219.9211,186.5914 210.9171,195.4684 199.5801,201.7374 C188.2381,208.0104 175.5571,211.1444 161.5341,211.1444 C147.6801,211.1444 135.2141,208.0104 124.1371,201.7374" id="Fill-4" fill="#102A43"></path>
            <path d="M400.1548,61.9495 L400.1548,208.7605 L363.5368,208.7605 L363.5368,190.2105 C358.8628,196.5695 352.7598,201.5635 345.2288,205.1815 C337.6968,208.8015 329.5168,210.6145 320.6868,210.6145 C309.4308,210.6145 299.4768,208.1885 290.8218,203.3275 C282.1618,198.4705 275.3688,191.3155 270.4348,181.8625 C265.5008,172.4135 263.0328,161.1505 263.0328,148.0745 L263.0328,61.9495 L299.3918,61.9495 L299.3918,142.7745 C299.3918,154.4345 302.2478,163.4035 307.9618,169.6725 C313.6748,175.9455 321.4658,179.0795 331.3348,179.0795 C341.3738,179.0795 349.2538,175.9455 354.9668,169.6725 C360.6808,163.4035 363.5368,154.4345 363.5368,142.7745 L363.5368,61.9495 L400.1548,61.9495 Z" id="Fill-6" fill="#102A43"></path>
            <path d="M494.6597,66.4544 C502.1917,62.0404 510.8017,59.8294 520.4997,59.8294 L520.4997,98.7844 L510.8907,98.7844 C499.4647,98.7844 490.8497,101.5254 485.0507,106.9994 C479.2487,112.4774 476.3507,122.0174 476.3507,135.6194 L476.3507,208.7604 L439.9927,208.7604 L439.9927,61.9494 L476.3507,61.9494 L476.3507,84.7394 C481.0257,76.9674 487.1287,70.8724 494.6597,66.4544" id="Fill-8" fill="#102A43"></path>
            <path d="M666.1895,76.3919 C676.7485,87.4349 682.0315,102.8509 682.0315,122.6349 L682.0315,208.7599 L645.6715,208.7599 L645.6715,127.6699 C645.6715,116.0099 642.8165,107.0449 637.1025,100.7719 C631.3895,94.5029 623.5985,91.3649 613.7295,91.3649 C603.6865,91.3649 595.7655,94.5029 589.9665,100.7719 C584.1655,107.0449 581.2675,116.0099 581.2675,127.6699 L581.2675,208.7599 L544.9095,208.7599 L544.9095,61.9499 L581.2675,61.9499 L581.2675,80.2349 C586.1125,73.8749 592.3045,68.8849 599.8355,65.2619 C607.3675,61.6429 615.6325,59.8299 624.6365,59.8299 C641.7775,59.8299 655.6265,65.3529 666.1895,76.3919" id="Fill-10" fill="#102A43"></path>
            <polygon id="Fill-12" fill="#102A43" points="858.2119 61.9495 769.1349 278.1895 730.4399 278.1895 761.6039 205.0505 703.9499 61.9495 744.7229 61.9495 781.8599 164.5055 819.5169 61.9495"></polygon>
            <path d="M861.5566,204.387 C857.3126,200.239 855.1946,195.071 855.1946,188.885 C855.1946,182.702 857.3126,177.535 861.5566,173.382 C865.7976,169.234 871.2056,167.155 877.7876,167.155 C884.1916,167.155 889.4746,169.234 893.6296,173.382 C897.7856,177.535 899.8626,182.702 899.8626,188.885 C899.8626,195.071 897.7856,200.239 893.6296,204.387 C889.4746,208.54 884.1916,210.615 877.7876,210.615 C871.2056,210.615 865.7976,208.54 861.5566,204.387" id="Fill-14" fill="#F2994A"></path>
            <mask id="mask-4" fill="white">
                <use xlink:href="#path-3"></use>
            </mask>
            <g id="Clip-17"></g>
            <path d="M936.207,208.76 L972.565,208.76 L972.565,61.949 L936.207,61.949 L936.207,208.76 Z M938.675,38.232 C934.43,34.083 932.312,28.916 932.312,22.73 C932.312,16.548 934.43,11.38 938.675,7.227 C942.915,3.078 948.239,1 954.646,1 C961.049,1 966.373,3.078 970.617,7.227 C974.858,11.38 976.98,16.548 976.98,22.73 C976.98,28.916 974.858,34.083 970.617,38.232 C966.373,42.385 961.049,44.46 954.646,44.46 C948.239,44.46 942.915,42.385 938.675,38.232 L938.675,38.232 Z" id="Fill-16" fill="#102A43" mask="url(#mask-4)"></path>
            <path d="M1090.8584,173.9124 C1096.6574,170.6454 1101.2874,165.7424 1104.7524,159.2044 C1108.2134,152.6714 1109.9464,144.7214 1109.9464,135.3544 C1109.9464,121.4004 1106.3514,110.6684 1099.1694,103.1574 C1091.9824,95.6504 1083.1974,91.8944 1072.8094,91.8944 C1062.4214,91.8944 1053.7214,95.6504 1046.7094,103.1574 C1039.6974,110.6684 1036.1914,121.4004 1036.1914,135.3544 C1036.1914,149.3124 1039.6084,160.0454 1046.4504,167.5524 C1053.2874,175.0634 1061.9024,178.8144 1072.2904,178.8144 C1078.8674,178.8144 1085.0554,177.1834 1090.8584,173.9124 M1034.8934,201.7374 C1023.8114,195.4684 1015.1114,186.5914 1008.7934,175.1044 C1002.4704,163.6234 999.3144,150.3734 999.3144,135.3544 C999.3144,120.3404 1002.5604,107.0904 1009.0524,95.6044 C1015.5454,84.1224 1024.4164,75.2454 1035.6714,68.9724 C1046.9244,62.7034 1059.4754,59.5644 1073.3294,59.5644 C1087.1774,59.5644 1099.7284,62.7034 1110.9854,68.9724 C1122.2374,75.2454 1131.1124,84.1224 1137.6044,95.6044 C1144.0964,107.0904 1147.3424,120.3404 1147.3424,135.3544 C1147.3424,150.3734 1144.0074,163.6234 1137.3444,175.1044 C1130.6774,186.5914 1121.6734,195.4684 1110.3364,201.7374 C1098.9944,208.0104 1086.3134,211.1444 1072.2904,211.1444 C1058.4364,211.1444 1045.9704,208.0104 1034.8934,201.7374" id="Fill-18" fill="#102A43" mask="url(#mask-4)"></path>
        </g>
    </g>
</svg>